<svg width="42" height="27" viewBox="0 0 42 27" fill="none" xmlns="http://www.w3.org/2000/svg">
  <style>
    .gradient-hover path {
      fill: white;
      stroke: transparent;
      stroke-width: 1;
      transition: fill 0.3s ease, stroke 0.3s ease;
    }

    .gradient-hover:hover path {
      fill: transparent;
      stroke: #8000FF;
      stroke-width: 3;
    }
  </style>
  <g class="gradient-hover">
    <path d="M1.32409 25.0637C1.09012 24.6865 0.903871 24.3866 0.64856 23.9746C1.16295 23.663 1.64009 23.3513 2.13816 23.0748C5.92095 20.9772 7.76757 17.77 7.82616 13.614C7.87806 9.92977 9.0751 6.72658 11.7931 4.10914C17.148 -1.04693 26.0701 -0.772853 31.0834 4.6876C31.178 4.79068 31.2525 4.91074 31.4295 5.14722C30.2463 5.80856 29.1254 6.48445 27.9468 7.04876C27.7342 7.15063 27.2319 6.85756 26.9544 6.63886C23.3403 3.79222 18.3186 3.92198 14.9674 7.00349C13.0977 8.72272 12.1895 10.8607 12.2129 13.3565C12.2338 15.5774 13.916 16.516 15.8965 15.4137C20.2029 13.0173 24.5064 10.6166 28.8115 8.21823C32.8517 5.96783 36.8923 3.71824 41.0079 1.42661C41.2397 1.81549 41.4344 2.14211 41.6754 2.54716C41.0895 2.89238 40.5651 3.21213 40.0302 3.51491C36.4219 5.55591 34.6167 8.65602 34.5154 12.6317C34.4372 15.6958 33.7156 18.5041 31.8095 20.9942C26.7925 27.5497 16.2678 27.8052 10.8786 21.3406C12.1267 20.6421 13.3526 19.9561 14.6367 19.2374C16.4812 20.9044 18.6062 21.8855 21.1471 21.8936C26.1693 21.9098 30.204 17.9596 30.1157 13.1043C30.0755 10.8943 28.3917 9.98839 26.399 11.1004C22.2245 13.4305 18.0499 15.7601 13.8729 18.0861C9.73012 20.3927 5.58444 22.6944 1.32367 25.0633L1.32409 25.0637Z"/>
  </g>
</svg>
