<svg width="98" height="12" viewBox="0 0 98 12" fill="none" xmlns="http://www.w3.org/2000/svg">
<path d="M46.7415 3.59999V9.97752C46.7415 11.218 45.7951 12 44.5974 12H27.0306C25.197 12 23.6 11.0022 23.6 9.24943V3.59999C23.6 2.89887 24.0584 2.39999 24.7534 2.39999H25.0195C25.7145 2.39999 26.1581 2.89887 26.1581 3.59999V6.97078C26.1581 8.84494 26.9566 9.61348 29.3817 9.61348H30.6386C33.1819 9.61348 33.8325 8.81797 33.8325 7.05168V3.59999C33.8325 2.89887 34.2761 2.39999 34.9859 2.39999H35.2373C35.947 2.39999 36.3906 2.89887 36.3906 3.59999V8.22471C36.3906 8.9528 36.716 9.38426 37.4701 9.38426H37.7658C38.2538 9.38426 38.4756 9.24943 38.7713 8.97977L39.8508 7.9955C40.2796 7.60449 40.5014 7.48314 41.3442 7.37527L42.8673 7.19999C44.1685 7.02471 44.1685 6.80898 44.1685 5.89213V3.59999C44.1685 2.89887 44.6269 2.39999 45.3219 2.39999H45.5881C46.2831 2.39999 46.7415 2.89887 46.7415 3.59999Z" fill="white"/>
<path d="M58.5639 4.09887L59.0371 5.93258C59.1849 6.53932 59.4215 6.83595 60.1165 7.06516L62.7338 7.92808C63.8132 8.29213 64.0942 8.61572 64.0942 9.42471V10.7461C64.0942 11.4876 63.7541 12 63.1478 12H62.9852C62.6894 12 62.3493 11.8517 61.9353 11.4337C60.5749 10.0045 59.9982 9.66741 58.8596 9.66741H58.1942C57.4105 9.66741 57.1148 9.81572 56.6564 10.2876L55.6065 11.3393C55.089 11.8652 54.7045 12 53.7434 12H50.3572C49.3517 12 48.5384 11.4742 48.5384 10.382V5.33932C48.5384 3.16853 49.4256 2.39999 51.8802 2.39999H55.71C57.6027 2.39999 58.1499 2.81797 58.5639 4.09887ZM56.2719 6.18876C56.2719 5.13707 55.7988 4.70561 53.5807 4.70561C51.3627 4.70561 51.0226 5.13707 51.0226 6.18876C51.0226 7.24044 51.3627 7.65842 53.5807 7.65842C55.7988 7.65842 56.2719 7.24044 56.2719 6.18876Z" fill="white"/>
<path d="M70.0436 7.7528H71.4188C72.3503 7.7528 72.6609 7.88763 73.2523 8.54831L73.8586 9.24943C74.4205 9.85617 74.6571 9.95056 75.6774 9.95056H79.9804C80.631 9.95056 81.1633 10.3281 81.1633 10.9753C81.1633 11.6225 80.631 12 79.9804 12H67.4559C66.2729 12 65.578 11.2854 65.578 10.2876V3.59999C65.578 2.89887 66.0363 2.39999 66.7313 2.39999H66.9827C67.6925 2.39999 68.1361 2.89887 68.1361 3.59999V5.95954C68.1361 7.30786 68.6536 7.7528 70.0436 7.7528Z" fill="white"/>
<path d="M90.1482 8.42696C90.1482 7.37527 89.675 6.94381 87.457 6.94381C85.2537 6.94381 84.8988 7.37527 84.8988 8.42696C84.8988 9.47865 85.2537 9.89662 87.457 9.89662C89.675 9.89662 90.1482 9.47865 90.1482 8.42696ZM98 3.91011V9.93707C98 11.1506 97.379 12 95.7672 12H85.6382C83.4645 12 82.2816 10.9618 82.2816 9.10112V7.6719C82.2816 5.78426 83.2871 4.82696 85.6382 4.82696H92.8098C93.8893 4.82696 94.3181 4.70561 94.6582 4.20674L95.2496 3.3573C95.6933 2.66966 96.0481 2.39999 96.6396 2.39999H96.8318C97.5416 2.39999 98 3.07415 98 3.91011Z" fill="white"/>
<path d="M0.316138 11.5372C0.206645 11.3607 0.119482 11.2203 0 11.0276C0.240727 10.8817 0.464022 10.7359 0.69711 10.6065C2.4674 9.62481 3.33159 8.12387 3.35902 6.17893C3.3833 4.45476 3.9435 2.95572 5.21549 1.73079C7.72149 -0.682176 11.8969 -0.553914 14.2431 2.0015C14.2873 2.04974 14.3222 2.10593 14.405 2.2166C13.8513 2.52609 13.3268 2.8424 12.7752 3.10649C12.6757 3.15416 12.4406 3.01701 12.3108 2.91466C10.6194 1.58247 8.26934 1.6432 6.70099 3.0853C5.82603 3.88988 5.40099 4.89044 5.41195 6.05842C5.42175 7.09777 6.20896 7.53704 7.13583 7.02115C9.15116 5.8997 11.1651 4.77618 13.1799 3.65378C15.0706 2.60063 16.9616 1.54785 18.8876 0.475404C18.9961 0.657393 19.0872 0.810249 19.2 0.999805C18.9258 1.16136 18.6804 1.311 18.43 1.4527C16.7414 2.40786 15.8966 3.85866 15.8492 5.71923C15.8126 7.1532 15.4749 8.46742 14.5829 9.63275C12.235 12.7007 7.30957 12.8202 4.78751 9.79488C5.3716 9.46798 5.94531 9.14694 6.54625 8.81059C7.40946 9.59076 8.40391 10.0499 9.59305 10.0537C11.9433 10.0612 13.8315 8.21259 13.7902 5.94038C13.7714 4.90614 12.9834 4.48219 12.0509 5.00262C10.0972 6.09304 8.14359 7.18328 6.18878 8.27181C4.25004 9.35126 2.30992 10.4284 0.315942 11.537L0.316138 11.5372Z" fill="white"/>
</svg>
